<svg xmlns="http://www.w3.org/2000/svg" width="22.4" height="158.112" viewBox="0 0 22.4 158.112">
  <path id="Path_118" data-name="Path 118" d="M-63.76,0h4.416l-6.624-21.76H-72.4L-79.056,0h4.448l1.28-4.32h8.288Zm-8.448-8.16,2.752-9.408h.512L-66.16-8.16Zm26.368-3.2v-.512a4.261,4.261,0,0,0,4.352-4.576c0-2.784-1.824-5.312-6.688-5.312h-8.448V0h8.448c5.728,0,7.328-2.976,7.328-6.24C-40.848-9.056-42.1-11.136-45.84-11.36Zm-6.624-6.56h4.128c1.92,0,2.688.48,2.688,2.144,0,1.856-.768,2.336-2.688,2.336h-4.128Zm4.288,13.76h-4.288V-9.6h4.288c2.24,0,3.168.48,3.168,2.784C-45.008-4.64-45.936-4.16-48.176-4.16ZM-27.824.32c6.656,0,10.624-4.8,10.624-11.2s-3.968-11.2-10.624-11.2-10.624,4.8-10.624,11.2S-34.48.32-27.824.32Zm0-3.84c-3.712,0-6.464-1.984-6.464-7.36,0-5.408,2.752-7.36,6.464-7.36s6.464,1.952,6.464,7.36C-21.36-5.5-24.112-3.52-27.824-3.52ZM3.856-7.68V-21.76H-.3V-8.32c0,3.36-.992,4.8-5.088,4.8s-5.088-1.44-5.088-4.8V-21.76h-4.16V-7.68c0,5.664,3.584,8,9.248,8S3.856-2.016,3.856-7.68ZM23.632-21.76H7.056v3.84h6.208V0h4.16V-17.92h6.208ZM57.488-7.68V-21.76h-4.16V-8.32c0,3.36-.992,4.8-5.088,4.8s-5.088-1.44-5.088-4.8V-21.76h-4.16V-7.68c0,5.664,3.584,8,9.248,8S57.488-2.016,57.488-7.68Zm3.2,5.152C62.9-.832,67.312.32,70.384.32c5.088,0,8.672-1.888,8.672-6.656,0-4.416-2.784-5.376-8.96-6.784-3.264-.768-4.928-1.312-4.928-2.88,0-1.824,1.568-2.24,3.648-2.24a28.514,28.514,0,0,1,8.512,1.856v-3.872a20.545,20.545,0,0,0-8.1-1.824c-4.96,0-8.224,1.824-8.224,6.3,0,3.552,2.176,5.056,7.968,6.368,4.128.96,5.92,1.472,5.92,3.328,0,2.112-1.664,2.56-4.512,2.56a18.435,18.435,0,0,1-9.7-3.136Z" transform="translate(22.08 79.056) rotate(-90)" fill="#beff60"/>
</svg>
