<svg xmlns="http://www.w3.org/2000/svg" width="22.4" height="298.496" viewBox="0 0 22.4 298.496">
  <path id="Path_119" data-name="Path 119" d="M-120-21.76l-4.384,17.5h-.512l-4.192-17.5H-136l-4.192,17.5h-.512l-4.384-17.5h-4.32l5.6,21.76h6.848l4.16-17.5h.512L-128.1,0h6.848l5.568-21.76Zm20.768,0v9.28H-108.8v-9.28h-4.16V0h4.16V-8.64h9.568V0h4.16V-21.76Zm21.952,0-5.088,8.96h-.192l-5.088-8.96h-4.864l7.968,13.248L-84.48,0h4.1V-8.512l7.968-13.248Zm28.512,0h-7.968V0h4.16V-6.5h3.808c6.912,0,8.96-3.072,8.96-7.648S-41.856-21.76-48.768-21.76Zm.736,11.424h-4.544V-17.92h4.544c3.232,0,4.064,1.12,4.064,3.776C-43.968-11.584-44.8-10.336-48.032-10.336ZM-23.04-21.76v9.28h-9.568v-9.28h-4.16V0h4.16V-8.64h9.568V0h4.16V-21.76ZM-5.216.32C1.44.32,5.408-4.48,5.408-10.88S1.44-22.08-5.216-22.08s-10.624,4.8-10.624,11.2S-11.872.32-5.216.32Zm0-3.84c-3.712,0-6.464-1.984-6.464-7.36,0-5.408,2.752-7.36,6.464-7.36s6.464,1.952,6.464,7.36C1.248-5.5-1.5-3.52-5.216-3.52Zm28.16-18.24H6.368v3.84h6.208V0h4.16V-17.92h6.208ZM34.368.32c6.656,0,10.624-4.8,10.624-11.2s-3.968-11.2-10.624-11.2-10.624,4.8-10.624,11.2S27.712.32,34.368.32Zm0-3.84C30.656-3.52,27.9-5.5,27.9-10.88c0-5.408,2.752-7.36,6.464-7.36s6.464,1.952,6.464,7.36C40.832-5.5,38.08-3.52,34.368-3.52Zm24.288-7.84v-.512a4.261,4.261,0,0,0,4.352-4.576c0-2.784-1.824-5.312-6.688-5.312H47.872V0H56.32c5.728,0,7.328-2.976,7.328-6.24C63.648-9.056,62.4-11.136,58.656-11.36Zm-6.624-6.56H56.16c1.92,0,2.688.48,2.688,2.144,0,1.856-.768,2.336-2.688,2.336H52.032ZM56.32-4.16H52.032V-9.6H56.32c2.24,0,3.168.48,3.168,2.784C59.488-4.64,58.56-4.16,56.32-4.16ZM76.672.32C83.328.32,87.3-4.48,87.3-10.88s-3.968-11.2-10.624-11.2-10.624,4.8-10.624,11.2S70.016.32,76.672.32Zm0-3.84c-3.712,0-6.464-1.984-6.464-7.36,0-5.408,2.752-7.36,6.464-7.36s6.464,1.952,6.464,7.36C83.136-5.5,80.384-3.52,76.672-3.52ZM100.16.32c6.656,0,10.624-4.8,10.624-11.2s-3.968-11.2-10.624-11.2-10.624,4.8-10.624,11.2S93.5.32,100.16.32Zm0-3.84C96.448-3.52,93.7-5.5,93.7-10.88c0-5.408,2.752-7.36,6.464-7.36s6.464,1.952,6.464,7.36C106.624-5.5,103.872-3.52,100.16-3.52Zm28.16-18.24H111.744v3.84h6.208V0h4.16V-17.92h6.208Zm16.608,0v9.28H135.36v-9.28H131.2V0h4.16V-8.64h9.568V0h4.16V-21.76Z" transform="translate(0.32 149.408) rotate(90)" fill="#beff60"/>
</svg>
