<svg xmlns="http://www.w3.org/2000/svg" width="160" height="37.558" viewBox="0 0 160 37.558">
  <g id="Group_1" data-name="Group 1" transform="translate(0 17.512)">
    <path id="Path_1" data-name="Path 1" d="M77.481,14.317H85.3a5.89,5.89,0,0,0,.038-.705c0-3.095-1.815-5.314-5.023-5.314a5.2,5.2,0,0,0-5.173,5.343,5.274,5.274,0,0,0,5.39,5.343,4.7,4.7,0,0,0,4.637-3.114l-1.938-.593A2.611,2.611,0,0,1,80.5,17.007,2.939,2.939,0,0,1,77.481,14.317Zm34.8-.677A5.424,5.424,0,1,0,117.729,8.3,5.344,5.344,0,0,0,112.283,13.64Zm-74.053,0A5.424,5.424,0,1,0,43.676,8.3,5.344,5.344,0,0,0,38.23,13.64Zm54.113,5.333A4.873,4.873,0,0,0,97.2,15.605l-2.1-.677a2.719,2.719,0,0,1-2.709,1.956,3.076,3.076,0,0,1-3.048-3.292,3.023,3.023,0,0,1,3.029-3.217,2.651,2.651,0,0,1,2.69,1.919l2.079-.677A4.719,4.719,0,0,0,92.38,8.3a5.312,5.312,0,0,0-5.39,5.333A5.254,5.254,0,0,0,92.342,18.973Zm-62.691,0a7.18,7.18,0,0,0,7.111-4.995l-2.333-.809a4.884,4.884,0,0,1-4.722,3.584,5.26,5.26,0,0,1-5.145-5.531,5.247,5.247,0,0,1,5.154-5.5,4.555,4.555,0,0,1,4.675,3.508l2.323-.8a6.912,6.912,0,0,0-6.97-4.938A7.682,7.682,0,0,0,22.07,11.3,7.467,7.467,0,0,0,29.651,18.973Zm75.577-8.4V8.513h-2.615V5.325h-2.286V8.513H98.334v2.06h1.994v5.032c0,2.5,1.138,3.283,3.16,3.283a6.256,6.256,0,0,0,1.646-.207V16.734a7.525,7.525,0,0,1-.931.075c-1.148,0-1.59-.442-1.59-1.326v-4.91Zm27.212,2.464v5.757h2.3v-6.33c0-2.342-1.242-4.167-3.856-4.167a3.881,3.881,0,0,0-3.142,1.6V8.513H125.5V18.794h2.3V13.066a2.344,2.344,0,0,1,2.38-2.6C131.753,10.47,132.44,11.57,132.44,13.038Zm-61.863,0v5.757h2.3v-6.33c0-2.342-1.242-4.167-3.856-4.167a3.881,3.881,0,0,0-3.142,1.6V8.513H63.635V18.794h2.3V13.066a2.344,2.344,0,0,1,2.38-2.6C69.89,10.47,70.577,11.57,70.577,13.038Zm-12.19,0v5.757h2.3v-6.33c0-2.342-1.242-4.167-3.856-4.167a3.881,3.881,0,0,0-3.142,1.6V8.513H51.445V18.794h2.3V13.066a2.344,2.344,0,0,1,2.38-2.6C57.7,10.47,58.387,11.57,58.387,13.038Zm49.231,5.757V8.513h2.3V18.794Zm7.008-5.2a3.055,3.055,0,0,1,3.085-3.217A3.089,3.089,0,0,1,120.8,13.64a3.077,3.077,0,0,1-3.066,3.254A3.152,3.152,0,0,1,114.625,13.593Zm-74.053,0a3.055,3.055,0,0,1,3.085-3.217,3.089,3.089,0,0,1,3.085,3.264,3.077,3.077,0,0,1-3.066,3.254A3.152,3.152,0,0,1,40.572,13.593Zm39.759-3.33A2.474,2.474,0,0,1,83,12.6H77.6A2.663,2.663,0,0,1,80.331,10.263Zm26.92-5.089a1.51,1.51,0,1,1,1.5,1.5A1.5,1.5,0,0,1,107.251,5.174ZM50.58-6.023V-11.78H48.285v6.321c0,2.333,1.279,4.176,3.856,4.176a3.881,3.881,0,0,0,3.142-1.6V-1.5h2.239V-11.78h-2.3v5.719a2.351,2.351,0,0,1-2.38,2.605C51.266-3.455,50.58-4.565,50.58-6.023Zm45.591-.63A5.344,5.344,0,0,0,101.6-1.32a5.34,5.34,0,0,0,5.418-5.38,5.306,5.306,0,0,0-5.4-5.3A5.338,5.338,0,0,0,96.171-6.653ZM65.253-1.32a4.873,4.873,0,0,0,4.853-3.367l-2.1-.677A2.719,2.719,0,0,1,65.3-3.408,3.076,3.076,0,0,1,62.253-6.7a3.023,3.023,0,0,1,3.029-3.217A2.651,2.651,0,0,1,67.971-8l2.079-.677A4.719,4.719,0,0,0,65.291-12,5.312,5.312,0,0,0,59.9-6.663,5.254,5.254,0,0,0,65.253-1.32ZM80.528-1.5a14.441,14.441,0,0,1-.075-1.656v-4.9a4.232,4.232,0,0,0-.348-1.834A3.887,3.887,0,0,0,76.249-12a5.265,5.265,0,0,0-2.088.4,3.841,3.841,0,0,0-2.3,2.794l2.079.47a2.1,2.1,0,0,1,2.248-1.7c1.354,0,2.022.752,2.022,1.571,0,.5-.263.865-.959.865h-1.27c-1.8,0-4.28.753-4.28,3.142v.113c0,1.778,1.458,3.029,3.471,3.029a3.429,3.429,0,0,0,3.019-1.59A10.423,10.423,0,0,0,78.28-1.5ZM34.589-6.653A5.183,5.183,0,0,0,39.65-1.339a4.359,4.359,0,0,0,3.443-1.768V-1.5h2.239V-17.188h-2.3v6.876a4.21,4.21,0,0,0-3.33-1.674A5.19,5.19,0,0,0,34.589-6.653ZM89.116-9.72v-2.06H86.5v-3.189H84.216v3.189H82.221v2.06h1.994v5.032c0,2.5,1.138,3.283,3.16,3.283a6.247,6.247,0,0,0,1.646-.207V-3.559a7.525,7.525,0,0,1-.931.075c-1.148,0-1.59-.442-1.59-1.326V-9.72Zm27.212,2.464V-1.5h2.3v-6.33c0-2.342-1.242-4.167-3.856-4.167a3.881,3.881,0,0,0-3.142,1.6V-11.78h-2.239V-1.5h2.3V-7.227a2.344,2.344,0,0,1,2.38-2.6C115.641-9.823,116.328-8.723,116.328-7.255ZM91.505-1.5V-11.78h2.3V-1.5ZM32.718-16.586h-9.66V-1.5h9.735V-3.653H25.428V-8.1h6.631v-2.145H25.428v-4.2h7.29ZM78.186-5.666a2.359,2.359,0,0,1-2.558,2.511,1.456,1.456,0,0,1-1.637-1.4c0-.969,1.11-1.439,1.975-1.439h2.22ZM98.513-6.7A3.055,3.055,0,0,1,101.6-9.917a3.089,3.089,0,0,1,3.085,3.264A3.077,3.077,0,0,1,101.617-3.4,3.152,3.152,0,0,1,98.513-6.7Zm-55.439.047a3.081,3.081,0,0,1-3.085,3.236A3.081,3.081,0,0,1,36.9-6.653a3.081,3.081,0,0,1,3.085-3.254A3.081,3.081,0,0,1,43.074-6.653Zm48.065-8.466a1.519,1.519,0,0,1,1.5-1.524,1.521,1.521,0,0,1,1.514,1.524,1.505,1.505,0,0,1-1.514,1.5A1.5,1.5,0,0,1,91.138-15.119Z" transform="translate(25.265 0.37)" fill="#6d00e7"/>
    <path id="Path_2" data-name="Path 2" d="M35.7,6.227a1.111,1.111,0,0,1,.736,1.438A18.752,18.752,0,0,1,25.345,18.858,18.785,18.785,0,0,1,1.189,7.833,18.776,18.776,0,0,1,36.369-5.3q.151.4.282.81a1.111,1.111,0,0,1-.669,1.382L24.7,1.107A1.111,1.111,0,0,0,23.985,2,5.243,5.243,0,0,1,20.62,6.2a5.264,5.264,0,1,1,1.616-8.9,1.1,1.1,0,0,0,1.116.207c1.541-.568,5.412-2.012,7.407-2.757a1.112,1.112,0,0,0,.665-.687,1.112,1.112,0,0,0-.115-.949,14.969,14.969,0,0,0-17.755-5.841A14.949,14.949,0,0,0,4.78,6.492,14.949,14.949,0,0,0,24,15.266,14.909,14.909,0,0,0,32.787,6.46a1.108,1.108,0,0,1,1.353-.685C34.624,5.913,35.2,6.082,35.7,6.227ZM29.375,4.378A1.111,1.111,0,0,1,30.1,5.857,12.21,12.21,0,1,1,14.51-10.171a12.177,12.177,0,0,1,9.82.567,1.107,1.107,0,0,1,.561.7,1.107,1.107,0,0,1-.139.884c-.277.439-.605.949-.878,1.373a1.112,1.112,0,0,1-1.426.4,8.328,8.328,0,0,0-6.6-.325A8.375,8.375,0,0,0,21.708,9.114a8.352,8.352,0,0,0,4.772-4.557,1.106,1.106,0,0,1,1.33-.631C28.294,4.062,28.876,4.232,29.375,4.378Z" transform="translate(0 0)" fill="#6d00e7" fill-rule="evenodd"/>
  </g>
</svg>
