<svg xmlns="http://www.w3.org/2000/svg" xmlns:xlink="http://www.w3.org/1999/xlink" width="500" zoomAndPan="magnify" viewBox="0 0 375 374.999991" height="500" preserveAspectRatio="xMidYMid meet" version="1.0"><defs><g/><clipPath id="8cc27f733e"><path d="M 61.132812 198.660156 L 169.132812 198.660156 L 169.132812 240.894531 L 61.132812 240.894531 Z M 61.132812 198.660156 " clip-rule="nonzero"/></clipPath><clipPath id="7ec24f39c4"><path d="M 91 133.707031 L 134 133.707031 L 134 161 L 91 161 Z M 91 133.707031 " clip-rule="nonzero"/></clipPath></defs><path fill="#ffffff" d="M 158.371094 190.695312 C 155.894531 189.410156 153.707031 188.277344 151.527344 187.136719 C 141.410156 181.84375 131.292969 176.554688 121.183594 171.257812 C 118.511719 169.859375 115.84375 168.449219 113.199219 167.003906 C 112.605469 166.675781 112.167969 166.640625 111.53125 166.976562 C 100.535156 172.78125 89.523438 178.554688 78.511719 184.332031 C 74.761719 186.300781 71.003906 188.265625 67.246094 190.230469 C 67.042969 190.335938 66.824219 190.410156 66.359375 190.605469 C 67.121094 188.582031 67.730469 186.746094 68.527344 184.996094 C 68.757812 184.496094 69.507812 184.1875 70.070312 183.890625 C 82.0625 177.613281 94.0625 171.351562 106.058594 165.078125 C 107.867188 164.136719 109.671875 163.191406 111.445312 162.1875 C 112.089844 161.828125 112.585938 161.835938 113.242188 162.183594 C 120.441406 166.007812 127.65625 169.808594 134.875 173.597656 C 141.660156 177.160156 148.464844 180.6875 155.234375 184.277344 C 155.746094 184.546875 156.199219 185.121094 156.4375 185.664062 C 157.109375 187.207031 157.65625 188.808594 158.371094 190.695312 " fill-opacity="1" fill-rule="nonzero"/><path fill="#ffffff" d="M 154.863281 174.078125 C 153.585938 173.414062 152.359375 172.773438 151.136719 172.132812 C 141.019531 166.84375 130.90625 161.554688 120.792969 156.253906 C 118.121094 154.855469 115.457031 153.445312 112.808594 152 C 112.214844 151.675781 111.777344 151.636719 111.144531 151.972656 C 100.148438 157.777344 89.132812 163.550781 78.125 169.328125 C 75.429688 170.742188 72.734375 172.152344 70.042969 173.5625 C 69.40625 175.042969 68.277344 179.367188 67.5 181.722656 C 69.003906 180.945312 69.015625 180.941406 70.191406 180.328125 C 80.640625 174.878906 91.074219 169.40625 101.546875 163.996094 C 103.121094 163.183594 109.035156 160.082031 110.902344 158.941406 C 112.007812 158.261719 112.820312 158.347656 113.878906 158.976562 C 115.746094 160.082031 137.84375 171.601562 145.035156 175.363281 C 149.367188 177.628906 152.453125 179.25 156.996094 181.628906 C 156.917969 181.238281 155.441406 176.6875 154.863281 174.078125 " fill-opacity="1" fill-rule="nonzero"/><g clip-path="url(#8cc27f733e)"><path fill="#ffffff" d="M 61.132812 220.785156 C 63.8125 214.714844 68.625 210.195312 75.308594 208.972656 C 82.597656 207.636719 90.207031 210.140625 96.816406 213 C 104.089844 216.148438 110.90625 220.207031 117.855469 223.984375 C 123.058594 226.816406 128.550781 229.871094 134.46875 230.863281 C 142.796875 232.257812 152.949219 231.011719 159.246094 224.585938 C 163.019531 220.742188 164.820312 215.292969 163.632812 210.003906 C 162.628906 205.515625 159.792969 201.828125 156.46875 198.753906 C 167.785156 203.3125 172.507812 216.125 166.535156 226.824219 C 160.414062 237.785156 147.0625 241.714844 135.179688 240.753906 C 125.488281 239.972656 116.847656 234.851562 108.773438 229.828125 C 103.378906 226.472656 98.109375 222.910156 92.582031 219.769531 C 87.472656 216.867188 81.730469 213.898438 75.71875 213.71875 C 69.753906 213.539062 65.144531 216.734375 61.132812 220.785156 " fill-opacity="1" fill-rule="nonzero"/></g><path fill="#ffffff" d="M 114.703125 216.886719 C 122.949219 220.613281 132.167969 222.84375 141.363281 222.246094 C 145.871094 221.953125 150.707031 220.949219 154.117188 217.8125 C 156.800781 214.949219 157.175781 211.359375 156.84375 207.597656 C 159.03125 211.269531 159.503906 215.722656 157.21875 219.488281 C 154.304688 224.296875 148.40625 226.984375 143.027344 227.050781 C 133.390625 227.167969 122.707031 222.902344 114.703125 216.886719 " fill-opacity="1" fill-rule="nonzero"/><path fill="#ffffff" d="M 92.609375 224.273438 C 87.5 221.367188 81.757812 218.402344 75.746094 218.21875 C 70.878906 218.074219 64.835938 220.667969 62.722656 224.089844 C 66.058594 222.742188 69.320312 222.082031 72.976562 222.003906 C 84.226562 221.765625 92.78125 226.507812 100.453125 229.035156 C 97.871094 227.394531 95.269531 225.785156 92.609375 224.273438 " fill-opacity="1" fill-rule="nonzero"/><path fill="#ffffff" d="M 156.191406 192.453125 C 150.292969 189.402344 144.390625 186.359375 138.496094 183.304688 C 130.355469 179.082031 122.207031 174.867188 114.085938 170.609375 C 112.929688 170.003906 111.992188 169.839844 110.730469 170.507812 C 98.730469 176.851562 86.6875 183.113281 74.65625 189.402344 C 72.207031 190.679688 69.765625 191.964844 67.308594 193.253906 C 68.902344 198.863281 70.472656 204.410156 72.050781 209.945312 C 72.582031 209.667969 73.132812 209.410156 73.707031 209.179688 C 75.355469 208.527344 77.066406 208.085938 78.8125 207.8125 C 78.128906 205.597656 77.441406 203.382812 76.753906 201.171875 C 77.085938 201.199219 77.203125 201.308594 77.277344 201.441406 C 78.367188 203.492188 79.460938 205.542969 80.550781 207.59375 C 85.566406 207.121094 90.789062 207.898438 95.589844 208.925781 C 103.34375 210.589844 110.832031 213.238281 118.390625 215.585938 C 121.316406 216.492188 124.332031 217.445312 127.394531 218.128906 C 130.984375 218.546875 134.621094 218.632812 138.226562 218.304688 C 140.339844 212.132812 143.753906 202.171875 144.902344 198.921875 C 145.242188 197.960938 145.105469 197.449219 144.171875 196.890625 C 135.917969 191.949219 127.699219 186.945312 119.46875 181.957031 C 117.984375 181.054688 116.503906 180.136719 115.023438 179.226562 C 115.066406 179.152344 115.109375 179.078125 115.152344 179.003906 C 126.875 184.671875 138.601562 190.34375 150.40625 196.050781 C 149.25 199.484375 146.082031 209.332031 143.429688 217.527344 C 146.070312 216.964844 148.714844 216.09375 150.984375 214.664062 C 153.527344 206.140625 156.195312 197.214844 157.351562 193.105469 C 156.894531 192.851562 156.550781 192.640625 156.191406 192.453125 " fill-opacity="1" fill-rule="nonzero"/><g clip-path="url(#7ec24f39c4)"><path fill="#ffffff" d="M 131.292969 143.667969 L 119.097656 143.667969 L 119.097656 136.253906 C 119.097656 134.886719 117.976562 133.769531 116.601562 133.769531 L 108.75 133.769531 C 107.375 133.769531 106.253906 134.886719 106.253906 136.253906 L 106.253906 143.667969 L 94.382812 143.667969 C 92.929688 143.667969 91.738281 144.851562 91.738281 146.296875 L 91.738281 158.78125 C 91.738281 159.019531 91.773438 159.25 91.835938 159.472656 C 98.421875 156.015625 105.011719 152.5625 111.589844 149.089844 C 111.984375 148.878906 112.257812 148.902344 112.628906 149.105469 C 114.273438 150.007812 115.933594 150.882812 117.597656 151.757812 C 122.917969 154.542969 128.242188 157.328125 133.566406 160.113281 C 133.800781 159.71875 133.9375 159.265625 133.9375 158.78125 L 133.9375 146.296875 C 133.9375 144.851562 132.746094 143.667969 131.292969 143.667969 " fill-opacity="1" fill-rule="nonzero"/></g><g fill="#ffffff" fill-opacity="1"><g transform="translate(174.462064, 181.755238)"><g><path d="M 7.515625 -4.671875 L 13.5625 -4.671875 L 13.5625 0 L 1.96875 0 L 1.96875 -25.578125 L 7.515625 -25.578125 Z M 7.515625 -4.671875 "/></g></g></g><g fill="#ffffff" fill-opacity="1"><g transform="translate(196.520483, 181.755238)"><g><path d="M 17.03125 -20.75 L 17.03125 -4.828125 C 17.03125 -1.347656 15.398438 0.390625 12.140625 0.390625 L 6.875 0.390625 C 3.601562 0.390625 1.96875 -1.347656 1.96875 -4.828125 L 1.96875 -20.75 C 1.96875 -24.226562 3.601562 -25.96875 6.875 -25.96875 L 12.140625 -25.96875 C 15.398438 -25.96875 17.03125 -24.226562 17.03125 -20.75 Z M 11.5 -4.1875 L 11.5 -21.421875 C 11.5 -21.628906 11.425781 -21.8125 11.28125 -21.96875 C 11.132812 -22.132812 10.957031 -22.21875 10.75 -22.21875 L 8.265625 -22.21875 C 8.054688 -22.21875 7.878906 -22.132812 7.734375 -21.96875 C 7.585938 -21.8125 7.515625 -21.628906 7.515625 -21.421875 L 7.515625 -4.1875 C 7.515625 -3.976562 7.585938 -3.796875 7.734375 -3.640625 C 7.878906 -3.484375 8.054688 -3.40625 8.265625 -3.40625 L 10.75 -3.40625 C 10.957031 -3.40625 11.132812 -3.484375 11.28125 -3.640625 C 11.425781 -3.796875 11.5 -3.976562 11.5 -4.1875 Z M 11.5 -4.1875 "/></g></g></g><g fill="#ffffff" fill-opacity="1"><g transform="translate(223.519821, 181.755238)"><g><path d="M 9.453125 -10.15625 L 9.453125 -14.234375 L 16.765625 -14.234375 L 16.765625 -4.828125 C 16.765625 -1.347656 15.128906 0.390625 11.859375 0.390625 L 6.875 0.390625 C 3.601562 0.390625 1.96875 -1.347656 1.96875 -4.828125 L 1.96875 -20.75 C 1.96875 -24.226562 3.601562 -25.96875 6.875 -25.96875 L 11.859375 -25.96875 C 15.128906 -25.96875 16.765625 -24.226562 16.765625 -20.75 L 16.765625 -18.34375 L 11.5 -18.34375 L 11.5 -21.421875 C 11.5 -21.628906 11.425781 -21.8125 11.28125 -21.96875 C 11.132812 -22.132812 10.957031 -22.21875 10.75 -22.21875 L 8.265625 -22.21875 C 8.054688 -22.21875 7.878906 -22.132812 7.734375 -21.96875 C 7.585938 -21.8125 7.515625 -21.628906 7.515625 -21.421875 L 7.515625 -4.1875 C 7.515625 -3.976562 7.585938 -3.796875 7.734375 -3.640625 C 7.878906 -3.484375 8.054688 -3.40625 8.265625 -3.40625 L 10.75 -3.40625 C 10.957031 -3.40625 11.132812 -3.484375 11.28125 -3.640625 C 11.425781 -3.796875 11.5 -3.976562 11.5 -4.1875 L 11.5 -10.15625 Z M 9.453125 -10.15625 "/></g></g></g><g fill="#ffffff" fill-opacity="1"><g transform="translate(249.214764, 181.755238)"><g><path d="M 17.03125 -20.75 L 17.03125 -4.828125 C 17.03125 -1.347656 15.398438 0.390625 12.140625 0.390625 L 6.875 0.390625 C 3.601562 0.390625 1.96875 -1.347656 1.96875 -4.828125 L 1.96875 -20.75 C 1.96875 -24.226562 3.601562 -25.96875 6.875 -25.96875 L 12.140625 -25.96875 C 15.398438 -25.96875 17.03125 -24.226562 17.03125 -20.75 Z M 11.5 -4.1875 L 11.5 -21.421875 C 11.5 -21.628906 11.425781 -21.8125 11.28125 -21.96875 C 11.132812 -22.132812 10.957031 -22.21875 10.75 -22.21875 L 8.265625 -22.21875 C 8.054688 -22.21875 7.878906 -22.132812 7.734375 -21.96875 C 7.585938 -21.8125 7.515625 -21.628906 7.515625 -21.421875 L 7.515625 -4.1875 C 7.515625 -3.976562 7.585938 -3.796875 7.734375 -3.640625 C 7.878906 -3.484375 8.054688 -3.40625 8.265625 -3.40625 L 10.75 -3.40625 C 10.957031 -3.40625 11.132812 -3.484375 11.28125 -3.640625 C 11.425781 -3.796875 11.5 -3.976562 11.5 -4.1875 Z M 11.5 -4.1875 "/></g></g></g><g fill="#ffffff" fill-opacity="1"><g transform="translate(176.629991, 207.12571)"><g><path d="M 6.3125 -2.296875 L 6.3125 -4.46875 L 9.1875 -4.46875 L 9.1875 -2.640625 C 9.1875 -0.734375 8.289062 0.21875 6.5 0.21875 L 3.765625 0.21875 C 1.972656 0.21875 1.078125 -0.734375 1.078125 -2.640625 L 1.078125 -11.375 C 1.078125 -13.28125 1.972656 -14.234375 3.765625 -14.234375 L 6.5 -14.234375 C 8.289062 -14.234375 9.1875 -13.28125 9.1875 -11.375 L 9.1875 -10.0625 L 6.3125 -10.0625 L 6.3125 -11.75 C 6.3125 -11.863281 6.269531 -11.960938 6.1875 -12.046875 C 6.101562 -12.128906 6.003906 -12.171875 5.890625 -12.171875 L 4.53125 -12.171875 C 4.414062 -12.171875 4.316406 -12.128906 4.234375 -12.046875 C 4.160156 -11.960938 4.125 -11.863281 4.125 -11.75 L 4.125 -2.296875 C 4.125 -2.179688 4.160156 -2.078125 4.234375 -1.984375 C 4.316406 -1.898438 4.414062 -1.859375 4.53125 -1.859375 L 5.890625 -1.859375 C 6.003906 -1.859375 6.101562 -1.898438 6.1875 -1.984375 C 6.269531 -2.078125 6.3125 -2.179688 6.3125 -2.296875 Z M 6.3125 -2.296875 "/></g></g></g><g fill="#ffffff" fill-opacity="1"><g transform="translate(190.869281, 207.12571)"><g><path d="M 9.34375 -11.375 L 9.34375 -2.640625 C 9.34375 -0.734375 8.445312 0.21875 6.65625 0.21875 L 3.765625 0.21875 C 1.972656 0.21875 1.078125 -0.734375 1.078125 -2.640625 L 1.078125 -11.375 C 1.078125 -13.28125 1.972656 -14.234375 3.765625 -14.234375 L 6.65625 -14.234375 C 8.445312 -14.234375 9.34375 -13.28125 9.34375 -11.375 Z M 6.3125 -2.296875 L 6.3125 -11.75 C 6.3125 -11.863281 6.269531 -11.960938 6.1875 -12.046875 C 6.101562 -12.128906 6.003906 -12.171875 5.890625 -12.171875 L 4.53125 -12.171875 C 4.414062 -12.171875 4.316406 -12.128906 4.234375 -12.046875 C 4.160156 -11.960938 4.125 -11.863281 4.125 -11.75 L 4.125 -2.296875 C 4.125 -2.179688 4.160156 -2.078125 4.234375 -1.984375 C 4.316406 -1.898438 4.414062 -1.859375 4.53125 -1.859375 L 5.890625 -1.859375 C 6.003906 -1.859375 6.101562 -1.898438 6.1875 -1.984375 C 6.269531 -2.078125 6.3125 -2.179688 6.3125 -2.296875 Z M 6.3125 -2.296875 "/></g></g></g><g fill="#ffffff" fill-opacity="1"><g transform="translate(205.672021, 207.12571)"><g><path d="M 4.09375 0 L 1.0625 0 L 1.0625 -11.375 C 1.0625 -13.28125 1.957031 -14.234375 3.75 -14.234375 L 5.359375 -14.234375 C 6.410156 -14.234375 7.160156 -13.890625 7.609375 -13.203125 C 8.023438 -13.890625 8.773438 -14.234375 9.859375 -14.234375 L 11.46875 -14.234375 C 13.257812 -14.234375 14.15625 -13.28125 14.15625 -11.375 L 14.15625 0 L 11.125 0 L 11.125 -11.640625 C 11.125 -11.753906 11.082031 -11.851562 11 -11.9375 C 10.914062 -12.03125 10.816406 -12.078125 10.703125 -12.078125 L 9.53125 -12.078125 C 9.414062 -12.078125 9.316406 -12.03125 9.234375 -11.9375 C 9.160156 -11.851562 9.125 -11.753906 9.125 -11.640625 L 9.125 0 L 6.09375 0 L 6.09375 -11.640625 C 6.09375 -11.753906 6.050781 -11.851562 5.96875 -11.9375 C 5.882812 -12.03125 5.785156 -12.078125 5.671875 -12.078125 L 4.5 -12.078125 C 4.382812 -12.078125 4.285156 -12.03125 4.203125 -11.9375 C 4.128906 -11.851562 4.09375 -11.753906 4.09375 -11.640625 Z M 4.09375 0 "/></g></g></g><g fill="#ffffff" fill-opacity="1"><g transform="translate(225.134112, 207.12571)"><g><path d="M 6.546875 -14.015625 C 8.335938 -14.015625 9.234375 -13.0625 9.234375 -11.15625 L 9.234375 -8.359375 C 9.234375 -6.453125 8.335938 -5.5 6.546875 -5.5 L 4.09375 -5.5 L 4.09375 0 L 1.0625 0 L 1.0625 -14.015625 Z M 6.203125 -8.015625 L 6.203125 -11.5 C 6.203125 -11.625 6.160156 -11.726562 6.078125 -11.8125 C 5.992188 -11.894531 5.894531 -11.9375 5.78125 -11.9375 L 4.09375 -11.9375 L 4.09375 -7.578125 L 5.78125 -7.578125 C 5.894531 -7.578125 5.992188 -7.617188 6.078125 -7.703125 C 6.160156 -7.796875 6.203125 -7.898438 6.203125 -8.015625 Z M 6.203125 -8.015625 "/></g></g></g><g fill="#ffffff" fill-opacity="1"><g transform="translate(239.11334, 207.12571)"><g><path d="M 6.65625 -14.234375 C 8.445312 -14.234375 9.34375 -13.28125 9.34375 -11.375 L 9.34375 0 L 6.3125 0 L 6.3125 -4.703125 L 4.125 -4.703125 L 4.125 0 L 1.078125 0 L 1.078125 -11.375 C 1.078125 -13.28125 1.972656 -14.234375 3.765625 -14.234375 Z M 4.125 -7.046875 L 6.3125 -7.046875 L 6.3125 -11.75 C 6.3125 -11.863281 6.269531 -11.960938 6.1875 -12.046875 C 6.101562 -12.128906 6.003906 -12.171875 5.890625 -12.171875 L 4.53125 -12.171875 C 4.414062 -12.171875 4.316406 -12.128906 4.234375 -12.046875 C 4.160156 -11.960938 4.125 -11.863281 4.125 -11.75 Z M 4.125 -7.046875 "/></g></g></g><g fill="#ffffff" fill-opacity="1"><g transform="translate(253.937751, 207.12571)"><g><path d="M 9.125 0 L 6.09375 0 L 6.09375 -11.640625 C 6.09375 -11.753906 6.050781 -11.851562 5.96875 -11.9375 C 5.882812 -12.03125 5.785156 -12.078125 5.671875 -12.078125 L 4.5 -12.078125 C 4.382812 -12.078125 4.285156 -12.03125 4.203125 -11.9375 C 4.128906 -11.851562 4.09375 -11.753906 4.09375 -11.640625 L 4.09375 0 L 1.0625 0 L 1.0625 -11.375 C 1.0625 -13.28125 1.957031 -14.234375 3.75 -14.234375 L 6.4375 -14.234375 C 8.226562 -14.234375 9.125 -13.28125 9.125 -11.375 Z M 9.125 0 "/></g></g></g><g fill="#ffffff" fill-opacity="1"><g transform="translate(268.328734, 207.12571)"><g><path d="M 9.203125 -14.015625 L 6.203125 -5.109375 L 6.203125 0 L 3.171875 0 L 3.171875 -5.109375 L 0.15625 -14.015625 L 3.015625 -14.015625 L 4.6875 -8.171875 L 6.34375 -14.015625 Z M 9.203125 -14.015625 "/></g></g></g></svg>